<svg id="account-list-svg-old" viewBox="0 0 24 24"><g><path d="M9,2H4C2.897,2,2,2.896,2,4v5c0,1.104,0.897,2,2,2h5c1.103,0,2-0.896,2-2V4C11,2.896,10.103,2,9,2z M9,9H4V4h5V9z"/><path d="M20,2h-5c-1.104,0-2,0.896-2,2v5c0,1.104,0.896,2,2,2h5c1.104,0,2-0.896,2-2V4C22,2.896,21.104,2,20,2z M20,9h-5V4h5V9z"/><path d="M9,13H4c-1.103,0-2,0.896-2,2v5c0,1.104,0.897,2,2,2h5c1.103,0,2-0.896,2-2v-5C11,13.896,10.103,13,9,13z M9,20H4v-5h5V20z   "/><path d="M20,13h-5c-1.104,0-2,0.896-2,2v5c0,1.104,0.896,2,2,2h5c1.104,0,2-0.896,2-2v-5C22,13.896,21.104,13,20,13z M20,20h-5v-5   h5V20z"/></g></svg>
<svg id="account-list-svg" viewBox="0 0 60.123 60.123"><g><path d="M57.124,51.893H16.92c-1.657,0-3-1.343-3-3s1.343-3,3-3h40.203c1.657,0,3,1.343,3,3S58.781,51.893,57.124,51.893z"/><path d="M57.124,33.062H16.92c-1.657,0-3-1.343-3-3s1.343-3,3-3h40.203c1.657,0,3,1.343,3,3C60.124,31.719,58.781,33.062,57.124,33.062z"/><path d="M57.124,14.231H16.92c-1.657,0-3-1.343-3-3s1.343-3,3-3h40.203c1.657,0,3,1.343,3,3S58.781,14.231,57.124,14.231z"/><circle cx="4.029" cy="11.463" r="4.029"/><circle cx="4.029" cy="30.062" r="4.029"/><circle cx="4.029" cy="48.661" r="4.029"/></g></svg>
<svg id="add-account-svg" viewBox="0 0 24 24"><path d="M9,14c1.381,0,2.631-0.56,3.536-1.465C13.44,11.631,14,10.381,14,9s-0.56-2.631-1.464-3.535C11.631,4.56,10.381,4,9,4  S6.369,4.56,5.464,5.465C4.56,6.369,4,7.619,4,9s0.56,2.631,1.464,3.535C6.369,13.44,7.619,14,9,14z"/><path d="M9,21c3.518,0,6-1,6-2c0-2-2.354-4-6-4c-3.75,0-6,2-6,4C3,20,5.25,21,9,21z"/><path d="M21,12h-2v-2c0-0.553-0.447-1-1-1s-1,0.447-1,1v2h-2c-0.553,0-1,0.447-1,1s0.447,1,1,1h2v2c0,0.553,0.447,1,1,1s1-0.447,1-1  v-2h2c0.553,0,1-0.447,1-1S21.553,12,21,12z"/></svg>
<svg id="filling-account-svg" viewBox="0 0 24 24"><g><path d="M16.707,7.404C16.518,7.216,16.259,7.121,16,7.121s-0.518,0.095-0.707,0.283L13,9.697V3c0-0.552-0.448-1-1-1s-1,0.448-1,1   v6.697L8.707,7.404C8.518,7.216,8.267,7.111,8,7.111S7.482,7.216,7.293,7.404c-0.39,0.39-0.39,1.024,0,1.414L12,13.5l4.709-4.684   C17.097,8.429,17.097,7.794,16.707,7.404z"/><path d="M20.987,16c0-0.105-0.004-0.211-0.039-0.316l-2-6C18.812,9.275,18.431,9,18,9h-0.219c-0.094,0.188-0.21,0.368-0.367,0.525   L15.932,11h1.348l1.667,5H5.054l1.667-5h1.348L6.586,9.525C6.429,9.368,6.312,9.188,6.219,9H6C5.569,9,5.188,9.275,5.052,9.684   l-2,6C3.017,15.789,3.013,15.895,3.013,16C3,16,3,21,3,21c0,0.553,0.447,1,1,1h16c0.553,0,1-0.447,1-1C21,21,21,16,20.987,16z"/></g></svg>
<svg id="settings-svg" viewBox="0 0 24 24"><g><path d="M22.2,14.4L21,13.7c-1.3-0.8-1.3-2.7,0-3.5l1.2-0.7c1-0.6,1.3-1.8,0.7-2.7l-1-1.7c-0.6-1-1.8-1.3-2.7-0.7   L18,5.1c-1.3,0.8-3-0.2-3-1.7V2c0-1.1-0.9-2-2-2h-2C9.9,0,9,0.9,9,2v1.3c0,1.5-1.7,2.5-3,1.7L4.8,4.4c-1-0.6-2.2-0.2-2.7,0.7   l-1,1.7C0.6,7.8,0.9,9,1.8,9.6L3,10.3C4.3,11,4.3,13,3,13.7l-1.2,0.7c-1,0.6-1.3,1.8-0.7,2.7l1,1.7c0.6,1,1.8,1.3,2.7,0.7L6,18.9   c1.3-0.8,3,0.2,3,1.7V22c0,1.1,0.9,2,2,2h2c1.1,0,2-0.9,2-2v-1.3c0-1.5,1.7-2.5,3-1.7l1.2,0.7c1,0.6,2.2,0.2,2.7-0.7l1-1.7   C23.4,16.2,23.1,15,22.2,14.4z M12,16c-2.2,0-4-1.8-4-4c0-2.2,1.8-4,4-4s4,1.8,4,4C16,14.2,14.2,16,12,16z"/></g></svg>
<svg id="options-svg" viewBox="0 0 70 70"><path d="M39.508,16c0.606,0,1.214,0.044,1.82,0.13l-6.775,6.775l2.16,10.381l10.381,2.16l6.767-6.767  c0.496,3.538-0.481,7.004-2.861,9.384c-1.931,1.931-4.618,2.994-7.567,2.994c-1.353,0-2.723-0.219-4.071-0.65l-2.323-0.744  L24.22,52.484c-0.895,0.895-2.086,1.388-3.352,1.388c-1.266,0-2.457-0.493-3.352-1.388s-1.388-2.086-1.388-3.352  c0-1.266,0.493-2.457,1.388-3.352L30.337,32.96l-0.744-2.323c-1.39-4.342-0.492-8.801,2.344-11.637  C33.871,17.065,36.56,16,39.508,16 M39.508,12c-3.875,0-7.602,1.373-10.4,4.171c-4.064,4.064-5.115,10.094-3.325,15.686  L14.688,42.952c-3.413,3.413-3.413,8.947,0,12.361c1.707,1.707,3.943,2.56,6.18,2.56c2.237,0,4.474-0.853,6.18-2.56l11.096-11.096  c1.745,0.559,3.533,0.841,5.29,0.841c3.874,0,7.599-1.37,10.395-4.166c5.005-5.005,5.452-12.989,1.628-19.465l-9.664,9.664  l-5.699-1.186l-1.186-5.699l9.664-9.664C45.717,12.856,42.566,12,39.508,12L39.508,12z"/></svg>
<svg id="promotion-svg" viewBox="8 8 16 16"><path d="M13.5454545,17 L11,17 L14,9 L20,9 L18.5,13 L22,13 L11,24 L13.5454545,17 L13.5454545,17 Z"/></svg>
<svg id="miniload-svg" viewBox="0 0 128 128" xml:space="preserve"><g><path d="M75.4 126.63a11.43 11.43 0 0 1-2.1-22.65 40.9 40.9 0 0 0 30.5-30.6 11.4 11.4 0 1 1 22.27 4.87h.02a63.77 63.77 0 0 1-47.8 48.05v-.02a11.38 11.38 0 0 1-2.93.37z" fill-opacity="1"/><animateTransform attributeName="transform" type="rotate" from="0 64 64" to="360 64 64" dur="1600ms" repeatCount="indefinite"></animateTransform></g></svg>
<svg id='unlock-svg' height="17px" width="12px" viewBox="0 0 1262 1710.258"><path d="M1196.495,713.258H1090V459.592c0-253.285-205.603-459.35-458.802-459.35c-253.198,0-458.994,206.2-458.994,459.649    c0,36.494,29.678,66.071,66.168,66.071c36.491,0,66.119-29.577,66.119-66.071c0-180.588,146.418-327.508,326.753-327.508    C811.58,132.384,958,279.168,958,459.592v253.666H66.686C30.195,713.258,0,742.241,0,778.731v766.42    c0,91.079,74.712,165.106,165.792,165.106h931.597c91.08,0,164.611-74.027,164.611-165.106v-766.42    C1262,742.241,1232.985,713.258,1196.495,713.258z M1130,1545.151c0,18.218-14.395,33.106-32.611,33.106H165.792    c-18.216,0-33.792-14.889-33.792-33.106V845.258h998V1545.151z"/><path d="M631,1409.707c36.491,0,66-29.58,66-66.071v-237.854c0-36.49-29.51-66.07-66-66.07c-36.49,0-66,29.58-66,66.07v237.854    C565,1380.127,594.509,1409.707,631,1409.707z"/></svg>
<svg id='unblock-svg' viewBox="0 0 24 32"><path d="M14.004,0C8.49,0,4.006,4.488,4.006,10h4c0-3.305,2.689-6,5.998-6S20,6.695,20,10v2H0v14    c0,3.312,2.691,6,5.998,6H18c3.309,0,6-2.688,6-6V10C24,4.488,19.516,0,14.004,0z M18,28H5.998c-1.102,0-2-0.895-2-2V16H20v10    C20,27.105,19.102,28,18,28z"/><path d="M14,22c0,1.109-0.895,2-2,2s-2-0.891-2-2c0-1.102,0.895-2,2-2S14,20.898,14,22z"/></svg>
<svg id='no-avatar-svg' height="96px" width="96px" viewBox="0 0 96 96"><path d="M72,48h-6c-1.654,0-3-1.346-3-3v-0.332c3.706-3.788,6-8.963,6-14.668c0-11.579-9.42-21-21-21s-21,9.421-21,21  c0,5.706,2.294,10.881,6,14.669V45c0,1.654-1.346,3-3,3h-6c-8.271,0-15,6.729-15,15v21c0,1.657,1.343,3,3,3h72c1.657,0,3-1.343,3-3  V63C87,54.729,80.271,48,72,48z M33,30L33,30c9.646,0,14.967-2.384,17.793-4.503C53.012,27.608,56.877,30,63,30l0,0  c0,8.271-6.729,15-15,15C39.729,45,33,38.271,33,30L33,30z M81,81H15V63c0-4.963,4.038-9,9-9h6c3.688,0,6.863-2.232,8.251-5.416  C41.167,50.12,44.481,51,48,51c3.52,0,6.833-0.88,9.749-2.417C59.137,51.768,62.311,54,66,54h6c4.962,0,9,4.037,9,9V81z"/></svg>
<svg id="posts-feed-svg" viewBox="0 0 96 96"><path d="M60,88h-4H20c-2.21,0-4-1.79-4-4v-8V28V16.697C11.342,18.347,8,22.777,8,28v56c0,6.627,5.373,12,12,12h40  c5.223,0,9.653-3.343,11.303-8H60z"/><path d="M76,0H36c-6.627,0-12,5.373-12,12v56c0,6.627,5.373,12,12,12h40c6.627,0,12-5.373,12-12V12C88,5.373,82.627,0,76,0z M80,68  c0,2.21-1.79,4-4,4H36c-2.21,0-4-1.79-4-4V12c0-2.21,1.79-4,4-4h40c2.21,0,4,1.79,4,4V68z"/></svg>
<svg id="post-add-svg" viewBox="0 0 489.8 489.8"><g><g><path d="M438.2,0H51.6C23.1,0,0,23.2,0,51.6v386.6c0,28.5,23.2,51.6,51.6,51.6h386.6c28.5,0,51.6-23.2,51.6-51.6V51.6C489.8,23.2,466.6,0,438.2,0z M465.3,438.2c0,14.9-12.2,27.1-27.1,27.1H51.6c-14.9,0-27.1-12.2-27.1-27.1V51.6c0-14.9,12.2-27.1,27.1-27.1h386.6c14.9,0,27.1,12.2,27.1,27.1V438.2z"/><path d="M337.4,232.7h-80.3v-80.3c0-6.8-5.5-12.3-12.3-12.3s-12.3,5.5-12.3,12.3v80.3h-80.3c-6.8,0-12.3,5.5-12.3,12.2c0,6.8,5.5,12.3,12.3,12.3h80.3v80.3c0,6.8,5.5,12.3,12.3,12.3s12.3-5.5,12.3-12.3v-80.3h80.3c6.8,0,12.3-5.5,12.3-12.3C349.7,238.1,344.2,232.7,337.4,232.7z"/></g></g></svg>
<svg id="training-2-svg" viewBox="0 0 294.843 294.843"><g><path d="M278.527,79.946c-10.324-20.023-25.38-37.704-43.538-51.132c-2.665-1.97-6.421-1.407-8.392,1.257s-1.407,6.421,1.257,8.392c16.687,12.34,30.521,28.586,40.008,46.983c9.94,19.277,14.98,40.128,14.98,61.976c0,74.671-60.75,135.421-135.421,135.421S12,222.093,12,147.421S72.75,12,147.421,12c3.313,0,6-2.687,6-6s-2.687-6-6-6C66.133,0,0,66.133,0,147.421s66.133,147.421,147.421,147.421s147.421-66.133,147.421-147.421C294.842,123.977,289.201,100.645,278.527,79.946z"/><path d="M109.699,78.969c-1.876,1.067-3.035,3.059-3.035,5.216v131.674c0,3.314,2.687,6,6,6s6-2.686,6-6V94.74l88.833,52.883l-65.324,42.087c-2.785,1.795-3.589,5.508-1.794,8.293c1.796,2.786,5.508,3.59,8.294,1.794l73.465-47.333c1.746-1.125,2.786-3.073,2.749-5.15c-0.037-2.077-1.145-3.987-2.93-5.05L115.733,79.029C113.877,77.926,111.575,77.902,109.699,78.969z"/></g></svg>
<svg id="training-svg" viewBox="0 0 512 512"><g><g><path d="M477.606,128.055C443.431,68.863,388.251,26.52,322.229,8.83C256.208-8.862,187.25,0.217,128.055,34.394C68.861,68.57,26.52,123.75,8.83,189.772c-17.69,66.021-8.611,134.981,25.564,194.173C68.568,443.137,123.75,485.48,189.771,503.17c22.046,5.908,44.417,8.83,66.646,8.83c44.339,0,88.101-11.629,127.529-34.393c59.192-34.175,101.535-89.355,119.225-155.377C520.862,256.207,511.781,187.249,477.606,128.055z M477.429,315.333c-15.848,59.146-53.78,108.581-106.81,139.197c-53.028,30.617-114.806,38.749-173.952,22.903c-59.147-15.848-108.581-53.78-139.198-106.81c-30.616-53.028-38.749-114.807-22.9-173.954C50.418,137.523,88.35,88.09,141.379,57.472c35.325-20.395,74.524-30.812,114.249-30.812c19.91,0,39.959,2.618,59.702,7.909c59.146,15.848,108.581,53.78,139.197,106.81C485.144,194.408,493.278,256.186,477.429,315.333z"/></g></g><g><g><path d="M378.778,231.852l-164.526-94.99c-8.731-5.041-19.155-5.039-27.886-0.001c-8.731,5.04-13.944,14.069-13.944,24.15v189.98c0,10.081,5.212,19.109,13.944,24.15c4.365,2.521,9.152,3.78,13.941,3.78c4.79,0,9.579-1.262,13.944-3.781l164.528-94.989c8.73-5.042,13.941-14.07,13.941-24.151C392.72,245.92,387.508,236.892,378.778,231.852z M365.452,257.074l-164.527,94.989c-0.201,0.117-0.62,0.358-1.236,0c-0.618-0.357-0.618-0.839-0.618-1.071v-189.98c0-0.232,0-0.714,0.618-1.071c0.242-0.14,0.453-0.188,0.633-0.188c0.28,0,0.482,0.117,0.605,0.188l164.526,94.99c0.201,0.116,0.618,0.357,0.618,1.071C366.071,256.716,365.652,256.958,365.452,257.074z"/></g></g><g><g><path d="M413.303,134.44c-31.689-40.938-79.326-68.442-130.698-75.461c-7.283-0.997-14.009,4.106-15.006,11.399c-0.995,7.291,4.108,14.009,11.399,15.006c44.512,6.081,85.783,29.909,113.232,65.369c2.626,3.392,6.565,5.168,10.546,5.168c2.849,0,5.72-0.909,8.146-2.789C416.741,148.628,417.807,140.259,413.303,134.44z"/></g></g></svg>
<svg id="proxysale-svg" viewBox="0 0 60 60"><g><path d="M10.5,7.069c-2.481,0-4.5,2.019-4.5,4.5s2.019,4.5,4.5,4.5s4.5-2.019,4.5-4.5S12.981,7.069,10.5,7.069z M10.5,14.069c-1.378,0-2.5-1.121-2.5-2.5s1.122-2.5,2.5-2.5s2.5,1.121,2.5,2.5S11.878,14.069,10.5,14.069z"/><circle cx="50" cy="10.069" r="1"/><circle cx="46" cy="10.069" r="1"/><circle cx="52" cy="13.069" r="1"/><circle cx="48" cy="13.069" r="1"/><circle cx="42" cy="10.069" r="1"/><circle cx="44" cy="13.069" r="1"/><circle cx="38" cy="10.069" r="1"/><circle cx="40" cy="13.069" r="1"/><circle cx="34" cy="10.069" r="1"/><circle cx="36" cy="13.069" r="1"/><path d="M60,17.46V5.677c0-2.541-2.067-4.608-4.608-4.608H4.608C2.067,1.069,0,3.136,0,5.677V17.46c0,1.469,0.703,2.764,1.777,3.608C0.703,21.913,0,23.208,0,24.677V36.46c0,2.541,2.067,4.608,4.608,4.608H30h25.392c2.541,0,4.608-2.067,4.608-4.608V24.677c0-1.469-0.703-2.764-1.777-3.608C59.297,20.224,60,18.929,60,17.46z M58,24.677V36.46c0,1.438-1.17,2.608-2.608,2.608H4.608C3.17,39.069,2,37.899,2,36.46V24.677c0-1.438,1.17-2.608,2.608-2.608h50.783C56.83,22.069,58,23.239,58,24.677z M4.608,20.069C3.17,20.069,2,18.899,2,17.46V5.677c0-1.438,1.17-2.608,2.608-2.608h50.783C56.83,3.069,58,4.239,58,5.677V17.46c0,1.438-1.17,2.608-2.608,2.608H4.608z"/><path d="M10.5,35.069c2.481,0,4.5-2.019,4.5-4.5s-2.019-4.5-4.5-4.5S6,28.087,6,30.569S8.019,35.069,10.5,35.069z M10.5,28.069c1.378,0,2.5,1.121,2.5,2.5s-1.122,2.5-2.5,2.5S8,31.948,8,30.569S9.122,28.069,10.5,28.069z"/><path d="M31.473,51.455c0.229,0.129,0.439,0.288,0.626,0.471c0.195,0.191,0.448,0.286,0.7,0.286c0.259,0,0.518-0.101,0.714-0.3c0.387-0.395,0.38-1.027-0.014-1.414c-0.311-0.305-0.66-0.567-1.039-0.783c-0.483-0.271-1.091-0.105-1.363,0.377C30.825,50.572,30.993,51.182,31.473,51.455z"/><path d="M31.504,56.666c-0.225,0.132-0.467,0.232-0.719,0.3c-0.533,0.144-0.849,0.692-0.706,1.226c0.121,0.446,0.524,0.74,0.965,0.74c0.086,0,0.173-0.011,0.261-0.034c0.422-0.114,0.828-0.283,1.205-0.503c0.477-0.278,0.639-0.891,0.361-1.368C32.593,56.549,31.981,56.389,31.504,56.666z"/><path d="M34,53.045c-0.552,0-1,0.471-1,1.023c0,0.264-0.034,0.524-0.101,0.775c-0.143,0.533,0.175,1.081,0.708,1.224c0.086,0.023,0.173,0.034,0.258,0.034c0.442,0,0.846-0.295,0.966-0.742C34.943,54.941,35,54.506,35,54.069v-0.047C35,53.469,34.552,53.045,34,53.045z"/><path d="M28.51,56.672c-0.227-0.13-0.436-0.289-0.621-0.473c-0.392-0.39-1.024-0.386-1.414,0.004c-0.39,0.392-0.388,1.025,0.004,1.414c0.31,0.308,0.659,0.574,1.038,0.791c0.157,0.09,0.327,0.132,0.496,0.132c0.347,0,0.684-0.181,0.869-0.503C29.155,57.558,28.989,56.947,28.51,56.672z"/><path d="M28.667,49.25c-0.42,0.115-0.824,0.287-1.2,0.508c-0.476,0.28-0.635,0.893-0.355,1.369c0.187,0.316,0.521,0.493,0.863,0.493c0.172,0,0.347-0.044,0.506-0.138c0.226-0.133,0.467-0.235,0.719-0.305c0.532-0.146,0.845-0.697,0.698-1.229C29.75,49.416,29.2,49.105,28.667,49.25z"/><path d="M27,54.069c0-0.258,0.033-0.513,0.097-0.759c0.139-0.534-0.181-1.08-0.716-1.22c-0.535-0.138-1.081,0.181-1.22,0.716C25.054,53.216,25,53.641,25,54.09l1,0.002h-1c0,0.553,0.447,0.988,1,0.988C26.553,55.081,27,54.622,27,54.069z"/><circle cx="50" cy="29.069" r="1"/><circle cx="46" cy="29.069" r="1"/><circle cx="52" cy="32.069" r="1"/><circle cx="48" cy="32.069" r="1"/><circle cx="42" cy="29.069" r="1"/><circle cx="44" cy="32.069" r="1"/><circle cx="38" cy="29.069" r="1"/><circle cx="40" cy="32.069" r="1"/><circle cx="34" cy="29.069" r="1"/><circle cx="36" cy="32.069" r="1"/><path d="M22,53.069h-1c-0.552,0-1,0.447-1,1s0.448,1,1,1h1c0.552,0,1-0.447,1-1S22.552,53.069,22,53.069z"/><path d="M14,53.069h-1c-0.552,0-1,0.447-1,1s0.448,1,1,1h1c0.552,0,1-0.447,1-1S14.552,53.069,14,53.069z"/><path d="M18,53.069h-1c-0.552,0-1,0.447-1,1s0.448,1,1,1h1c0.552,0,1-0.447,1-1S18.552,53.069,18,53.069z"/><path d="M2,53.069H1c-0.552,0-1,0.447-1,1s0.448,1,1,1h1c0.552,0,1-0.447,1-1S2.552,53.069,2,53.069z"/><path d="M6,53.069H5c-0.552,0-1,0.447-1,1s0.448,1,1,1h1c0.552,0,1-0.447,1-1S6.552,53.069,6,53.069z"/><path d="M10,53.069H9c-0.552,0-1,0.447-1,1s0.448,1,1,1h1c0.552,0,1-0.447,1-1S10.552,53.069,10,53.069z"/><path d="M39,53.069h-1c-0.552,0-1,0.447-1,1s0.448,1,1,1h1c0.552,0,1-0.447,1-1S39.552,53.069,39,53.069z"/><path d="M47,53.069h-1c-0.552,0-1,0.447-1,1s0.448,1,1,1h1c0.552,0,1-0.447,1-1S47.552,53.069,47,53.069z"/><path d="M43,53.069h-1c-0.552,0-1,0.447-1,1s0.448,1,1,1h1c0.552,0,1-0.447,1-1S43.552,53.069,43,53.069z"/><path d="M59,53.069h-1c-0.552,0-1,0.447-1,1s0.448,1,1,1h1c0.552,0,1-0.447,1-1S59.552,53.069,59,53.069z"/><path d="M51,53.069h-1c-0.552,0-1,0.447-1,1s0.448,1,1,1h1c0.552,0,1-0.447,1-1S51.552,53.069,51,53.069z"/><path d="M55,53.069h-1c-0.552,0-1,0.447-1,1s0.448,1,1,1h1c0.552,0,1-0.447,1-1S55.552,53.069,55,53.069z"/><path d="M31,47.069v-1c0-0.553-0.448-1-1-1s-1,0.447-1,1v1c0,0.553,0.448,1,1,1S31,47.622,31,47.069z"/><path d="M29,42.069v1c0,0.553,0.448,1,1,1s1-0.447,1-1v-1c0-0.553-0.448-1-1-1S29,41.516,29,42.069z"/></g></svg>
<svg id="help-svg" viewBox="0 0 100 100"><g><g><path d="M62.162,0c6.696,0,10.043,4.567,10.043,9.789c0,6.522-5.814,12.555-13.391,12.555c-6.344,0-10.045-3.752-9.869-9.947C48.945,7.176,53.35,0,62.162,0z M41.543,100c-5.287,0-9.164-3.262-5.463-17.615l6.07-25.457c1.057-4.077,1.23-5.707,0-5.707c-1.588,0-8.451,2.816-12.51,5.59L27,52.406C39.863,41.48,54.662,35.072,61.004,35.072c5.285,0,6.168,6.361,3.525,16.148L57.58,77.98c-1.234,4.729-0.703,6.359,0.527,6.359c1.586,0,6.787-1.963,11.896-6.041L73,82.377C60.488,95.1,46.83,100,41.543,100z"/></g></g></svg>
<svg id="instagram-svg" viewBox="0 0 169.063 169.063"><g><path d="M122.406,0H46.654C20.929,0,0,20.93,0,46.655v75.752c0,25.726,20.929,46.655,46.654,46.655h75.752c25.727,0,46.656-20.93,46.656-46.655V46.655C169.063,20.93,148.133,0,122.406,0z M154.063,122.407c0,17.455-14.201,31.655-31.656,31.655H46.654C29.2,154.063,15,139.862,15,122.407V46.655C15,29.201,29.2,15,46.654,15h75.752c17.455,0,31.656,14.201,31.656,31.655V122.407z"/><path d="M84.531,40.97c-24.021,0-43.563,19.542-43.563,43.563c0,24.02,19.542,43.561,43.563,43.561s43.563-19.541,43.563-43.561C128.094,60.512,108.552,40.97,84.531,40.97z M84.531,113.093c-15.749,0-28.563-12.812-28.563-28.561c0-15.75,12.813-28.563,28.563-28.563s28.563,12.813,28.563,28.563C113.094,100.281,100.28,113.093,84.531,113.093z"/><path d="M129.921,28.251c-2.89,0-5.729,1.17-7.77,3.22c-2.051,2.04-3.23,4.88-3.23,7.78c0,2.891,1.18,5.73,3.23,7.78c2.04,2.04,4.88,3.22,7.77,3.22c2.9,0,5.73-1.18,7.78-3.22c2.05-2.05,3.22-4.89,3.22-7.78c0-2.9-1.17-5.74-3.22-7.78C135.661,29.421,132.821,28.251,129.921,28.251z"/></g></svg>
<svg id="forum-svg" viewBox="0 0 489.6 489.6"><g><g><path d="M394.8,261.5V81.7c0-24.9-20.3-45.2-45.2-45.2H45.2C20.3,36.5,0,56.8,0,81.7v179.8c0,24.9,20.3,45.2,45.2,45.2h12.9v54.2c0,10,8.1,18.1,18.2,18.1l0,0c5.2,0,10.2-2.3,13.7-6.3l57.1-66.1h202.6C374.5,306.7,394.8,286.4,394.8,261.5z M141.4,282.2c-3.6,0-6.9,1.5-9.3,4.2l-49.6,57.3v-49.3c0-6.8-5.5-12.3-12.3-12.3h-25c-11.4,0-20.7-9.3-20.7-20.7V81.7c0-11.4,9.3-20.7,20.7-20.7h304.4c11.4,0,20.7,9.3,20.7,20.7v179.8c0,11.4-9.3,20.7-20.7,20.7L141.4,282.2L141.4,282.2z"/><path d="M399.7,446.8c3.5,4.1,8.5,6.3,13.6,6.3c2.1,0,4.3-0.4,6.4-1.2c7.2-2.7,11.8-9.3,11.8-17v-54.2h12.9c24.9,0,45.2-20.3,45.2-45.2V155.7c0-24.9-20.3-45.2-45.2-45.2c-6.8,0-12.3,5.5-12.3,12.2c0,6.8,5.5,12.3,12.3,12.3c11.4,0,20.7,9.3,20.7,20.7v179.8c0,11.4-9.3,20.7-20.7,20.7h-25.1c-6.8,0-12.3,5.5-12.3,12.3v49.3l-49.6-57.3c-2.3-2.7-5.7-4.2-9.3-4.2h-184c-6.8,0-12.3,5.5-12.3,12.3s5.5,12.3,12.3,12.3h178.4L399.7,446.8z"/><circle cx="197.4" cy="175.9" r="14.6"/><circle cx="246.3" cy="175.9" r="14.6"/><circle cx="148.5" cy="175.9" r="14.6"/></g></g></svg>
<svg id="recommend-svg" viewBox="0 0 487.222 487.222"><g><path d="M486.554,186.811c-1.6-4.9-5.8-8.4-10.9-9.2l-152-21.6l-68.4-137.5c-2.3-4.6-7-7.5-12.1-7.5l0,0c-5.1,0-9.8,2.9-12.1,7.6l-67.5,137.9l-152,22.6c-5.1,0.8-9.3,4.3-10.9,9.2s-0.2,10.3,3.5,13.8l110.3,106.9l-25.5,151.4c-0.9,5.1,1.2,10.2,5.4,13.2c2.3,1.7,5.1,2.6,7.9,2.6c2.2,0,4.3-0.5,6.3-1.6l135.7-71.9l136.1,71.1c2,1,4.1,1.5,6.2,1.5l0,0c7.4,0,13.5-6.1,13.5-13.5c0-1.1-0.1-2.1-0.4-3.1l-26.3-150.5l109.6-107.5C486.854,197.111,488.154,191.711,486.554,186.811z M349.554,293.911c-3.2,3.1-4.6,7.6-3.8,12l22.9,131.3l-118.2-61.7c-3.9-2.1-8.6-2-12.6,0l-117.8,62.4l22.1-131.5c0.7-4.4-0.7-8.8-3.9-11.9l-95.6-92.8l131.9-19.6c4.4-0.7,8.2-3.4,10.1-7.4l58.6-119.7l59.4,119.4c2,4,5.8,6.7,10.2,7.4l132,18.8L349.554,293.911z"/></g></svg>
<svg id="faq-svg" viewBox="0 0 39.005 39.005"><g><path d="M33.17,33.881v5.124H5.705v-5.126c0-1.901,1.64-4.245,3.645-5.194l4.461-2.121l3.096,6.451l1.584-4.297c0.312,0.061,0.623,0.139,0.947,0.139c0.325,0,0.635-0.078,0.948-0.139l1.503,4.087l3.033-6.312l4.603,2.189C31.53,29.634,33.17,31.978,33.17,33.881z M19.439,26.492c3.919,0,7.096-4.877,7.096-9.347c0-4.474-3.176-6.847-7.096-6.847c-3.919,0-7.094,2.373-7.094,6.847C12.343,21.615,15.52,26.492,19.439,26.492z M30.04,15.183l-1.53-0.527c0.161-0.467,0.302-0.809,0.422-1.029c0.12-0.221,0.306-0.396,0.555-0.525c0.25-0.133,0.606-0.214,1.073-0.248c0.217-0.006,0.403-0.012,0.562-0.017c0.155-0.007,0.295-0.021,0.416-0.044s0.228-0.066,0.314-0.126c0.23-0.147,0.414-0.418,0.548-0.81c0.173-0.5,0.206-0.857,0.101-1.071c-0.055-0.15-0.166-0.274-0.337-0.37c-0.172-0.096-0.433-0.204-0.784-0.324c-0.397-0.124-0.695-0.197-0.894-0.224c-0.194-0.027-0.358-0.001-0.489,0.082c-0.14,0.104-0.28,0.319-0.426,0.649c0.002,0.045-0.011,0.108-0.039,0.188l-0.125,0.36l-1.529-0.525c0.243-0.706,0.488-1.223,0.736-1.551c0.25-0.327,0.529-0.526,0.84-0.6c0.357-0.086,0.726-0.091,1.103-0.015c0.376,0.076,0.828,0.205,1.355,0.386c1.178,0.406,1.885,0.896,2.122,1.475c0.212,0.509,0.166,1.201-0.137,2.082c-0.211,0.61-0.439,1.031-0.688,1.261c-0.249,0.228-0.557,0.378-0.924,0.448c-0.117,0.024-0.312,0.045-0.589,0.058c-0.273,0.013-0.479,0.024-0.615,0.039c-0.137,0.013-0.274,0.052-0.417,0.11c-0.177,0.053-0.294,0.135-0.354,0.244C30.243,14.646,30.152,14.853,30.04,15.183z M28.089,15.874l1.53,0.526l-0.568,1.651l-1.529-0.526L28.089,15.874z M9.391,14.862L8.096,15.43c-0.174-0.396-0.287-0.699-0.341-0.912c-0.052-0.213-0.038-0.437,0.044-0.668s0.264-0.496,0.542-0.795c0.136-0.134,0.253-0.248,0.351-0.344c0.096-0.097,0.178-0.188,0.242-0.275c0.063-0.088,0.105-0.178,0.127-0.268c0.061-0.232,0.018-0.516-0.127-0.845c-0.187-0.425-0.377-0.675-0.573-0.749c-0.123-0.065-0.269-0.077-0.436-0.037c-0.167,0.039-0.398,0.125-0.696,0.256C6.9,10.951,6.665,11.081,6.523,11.18c-0.142,0.1-0.231,0.213-0.267,0.344c-0.027,0.148,0.01,0.373,0.113,0.67c0.029,0.027,0.058,0.076,0.088,0.145l0.134,0.307l-1.295,0.569c-0.262-0.598-0.411-1.075-0.445-1.435c-0.035-0.358,0.026-0.652,0.182-0.885c0.18-0.267,0.413-0.487,0.701-0.662c0.287-0.174,0.654-0.358,1.101-0.557c0.997-0.438,1.743-0.542,2.239-0.312c0.437,0.2,0.819,0.674,1.146,1.419c0.228,0.519,0.33,0.924,0.305,1.219c-0.025,0.294-0.133,0.572-0.327,0.836c-0.062,0.087-0.176,0.217-0.345,0.387c-0.169,0.17-0.292,0.301-0.373,0.391c-0.08,0.09-0.146,0.197-0.202,0.32c-0.082,0.137-0.109,0.258-0.083,0.364C9.204,14.397,9.268,14.583,9.391,14.862z M8.547,16.463l1.296-0.57l0.615,1.399l-1.296,0.567L8.547,16.463z M18.089,6.765l-1.457-0.713c0.217-0.445,0.399-0.77,0.546-0.975c0.146-0.203,0.354-0.355,0.617-0.455c0.264-0.102,0.63-0.139,1.098-0.114c0.218,0.021,0.405,0.038,0.561,0.054c0.156,0.013,0.297,0.016,0.421,0.006c0.124-0.008,0.233-0.039,0.329-0.084c0.249-0.121,0.465-0.366,0.646-0.738c0.232-0.477,0.312-0.829,0.23-1.057c-0.034-0.155-0.132-0.293-0.29-0.41c-0.158-0.115-0.405-0.256-0.74-0.42C19.67,1.687,19.382,1.58,19.19,1.526c-0.191-0.049-0.357-0.045-0.498,0.021c-0.151,0.087-0.318,0.285-0.503,0.598c-0.002,0.045-0.023,0.104-0.061,0.183l-0.169,0.344L16.501,1.96c0.329-0.673,0.638-1.157,0.924-1.451c0.29-0.297,0.592-0.461,0.91-0.494c0.367-0.041,0.734,0,1.099,0.12c0.365,0.123,0.799,0.308,1.303,0.552c1.122,0.551,1.766,1.127,1.933,1.73c0.146,0.529,0.018,1.215-0.394,2.057c-0.285,0.58-0.564,0.971-0.841,1.168c-0.275,0.196-0.6,0.309-0.975,0.334c-0.122,0.01-0.319,0.006-0.595-0.017c-0.275-0.022-0.48-0.034-0.617-0.038c-0.138-0.005-0.281,0.02-0.43,0.063c-0.18,0.026-0.308,0.095-0.382,0.197C18.359,6.254,18.245,6.451,18.089,6.765z M16.064,7.212l1.459,0.712l-0.77,1.574l-1.459-0.714L16.064,7.212z"/></g></svg>
<svg id="referal-svg" viewBox="0 0 512 512"><g><path d="M476.697,37.322l-2.015-2.021c-47.073-47.066-124.097-47.066-171.162,0L194.467,144.369c-47.066,47.066-47.066,124.088,0,171.155l2.014,2.013c3.916,3.924,8.073,7.462,12.368,10.729l39.924-39.927c-4.651-2.747-9.063-6.034-13.059-10.028l-2.021-2.021c-25.557-25.549-25.557-67.136,0-92.695L342.758,74.539c25.559-25.559,67.137-25.559,92.692,0l2.021,2.012c25.55,25.559,25.55,67.146,0,92.695l-49.343,49.343c8.565,21.154,12.624,43.7,12.27,66.193L476.7,208.48C523.767,161.412,523.767,84.392,476.697,37.322z M315.521,194.468c-3.916-3.916-8.073-7.461-12.369-10.72l-39.924,39.916c4.651,2.748,9.062,6.037,13.059,10.031l2.021,2.02c25.558,25.559,25.558,67.137,0,92.694L169.242,437.476c-25.559,25.553-67.138,25.553-92.694,0l-2.021-2.021c-25.549-25.561-25.549-67.138,0-92.694l49.344-49.343c-8.566-21.152-12.623-43.701-12.269-66.192l-76.301,76.299c-47.068,47.064-47.068,124.089,0,171.162l2.013,2.016c47.076,47.062,124.096,47.062,171.164,0l109.055-109.059c47.066-47.066,47.066-124.099,0-171.164L315.521,194.468z"/></g></svg>
<svg id="sms-svg" viewBox="0 0 512 512"><g><path d="M332,280.003c-4.418,0-8,3.582-8,8V432H52V80h88c4.418,0,8-3.582,8-8s-3.582-8-8-8H52v-8c0-22.056,17.944-40,40-40h192c4.418,0,8-3.582,8-8s-3.582-8-8-8H92C61.122,0,36,25.122,36,56v400c0,30.878,25.122,56,56,56h192c30.878,0,56-25.122,56-56V288.003C340,283.585,336.418,280.003,332,280.003z M284,496H92c-22.056,0-40-17.944-40-40v-8h272v8C324,478.056,306.056,496,284,496z"/><path d="M204,464h-32c-4.418,0-8,3.582-8,8s3.582,8,8,8h32c4.418,0,8-3.582,8-8S208.418,464,204,464z"/><path d="M134.34,34.34C132.85,35.83,132,37.9,132,40c0,2.1,0.85,4.17,2.34,5.66c1.49,1.49,3.55,2.34,5.66,2.34c2.11,0,4.17-0.85,5.66-2.34c1.49-1.49,2.34-3.55,2.34-5.66c0-2.11-0.85-4.17-2.34-5.66C144.17,32.85,142.11,32,140,32C137.89,32,135.83,32.85,134.34,34.34z"/><path d="M212,136h48c4.418,0,8-3.582,8-8s-3.582-8-8-8h-48c-4.418,0-8,3.582-8,8S207.582,136,212,136z"/><path d="M420,120H292c-4.418,0-8,3.582-8,8s3.582,8,8,8h128c4.418,0,8-3.582,8-8S424.418,120,420,120z"/><path d="M420,160h-48c-4.418,0-8,3.582-8,8s3.582,8,8,8h48c4.418,0,8-3.582,8-8S424.418,160,420,160z"/><path d="M212,176h128c4.418,0,8-3.582,8-8s-3.582-8-8-8H212c-4.418,0-8,3.582-8,8S207.582,176,212,176z"/><path d="M420,80H212c-4.418,0-8,3.582-8,8s3.582,8,8,8h208c4.418,0,8-3.582,8-8S424.418,80,420,80z"/><path d="M420,200H212c-4.418,0-8,3.582-8,8s3.582,8,8,8h208c4.418,0,8-3.582,8-8S424.418,200,420,200z"/><path d="M420,32H212c-30.878,0-56,25.122-56,56v120c0,28.163,20.897,51.537,48,55.43v29.256c0,6.495,3.877,12.297,9.877,14.782c1.992,0.825,4.075,1.226,6.14,1.226c4.155,0,8.229-1.626,11.297-4.694l40-40H420c30.878,0,56-25.122,56-56V88C476,57.122,450.878,32,420,32z M460,208c0,22.056-17.944,40-40,40H268c-2.122,0-4.157,0.843-5.657,2.343L220,292.68V256c0-4.418-3.582-8-8-8c-22.056,0-40-17.944-40-40V88c0-22.056,17.944-40,40-40h208c22.056,0,40,17.944,40,40V208z"/></g></svg>
<svg id="telegram-svg" viewBox="0 0 189.473 189.473">
<g>
	<path d="M152.531,179.476c-1.48,0-2.95-0.438-4.211-1.293l-47.641-32.316l-25.552,18.386c-2.004,1.441-4.587,1.804-6.914,0.972
		c-2.324-0.834-4.089-2.759-4.719-5.146l-12.83-48.622L4.821,93.928c-2.886-1.104-4.8-3.865-4.821-6.955
		c-0.021-3.09,1.855-5.877,4.727-7.02l174.312-69.36c0.791-0.336,1.628-0.53,2.472-0.582c0.302-0.018,0.605-0.018,0.906-0.001
		c1.748,0.104,3.465,0.816,4.805,2.13c0.139,0.136,0.271,0.275,0.396,0.42c1.11,1.268,1.72,2.814,1.835,4.389
		c0.028,0.396,0.026,0.797-0.009,1.198c-0.024,0.286-0.065,0.571-0.123,0.854L159.898,173.38c-0.473,2.48-2.161,4.556-4.493,5.523
		C154.48,179.287,153.503,179.476,152.531,179.476z M104.862,130.579l42.437,28.785L170.193,39.24l-82.687,79.566l17.156,11.638
		C104.731,130.487,104.797,130.533,104.862,130.579z M69.535,124.178l5.682,21.53l12.242-8.809l-16.03-10.874
		C70.684,125.521,70.046,124.893,69.535,124.178z M28.136,86.782l31.478,12.035c2.255,0.862,3.957,2.758,4.573,5.092l3.992,15.129
		c0.183-1.745,0.974-3.387,2.259-4.624L149.227,38.6L28.136,86.782z"/>
</g>
</svg>

<svg version="1.1" id="australia-svg" viewBox="0 0 512.001 512.001" style="enable-background:new 0 0 512.001 512.001;" xml:space="preserve">
<path style="fill:#41479B;" d="M503.172,423.725H8.828c-4.875,0-8.828-3.953-8.828-8.828V97.104c0-4.875,3.953-8.828,8.828-8.828
	h494.345c4.875,0,8.828,3.953,8.828,8.828v317.793C512,419.773,508.047,423.725,503.172,423.725z"/>
<path style="fill:#F5F5F5;" d="M247.172,88.277h-15.334l-81.77,53.574V88.277H105.93v53.574L24.16,88.277H8.828
	C3.953,88.277,0,92.229,0,97.104v7.002l70.155,45.963H0v44.138h70.155L0,240.171v7.002c0,4.875,3.953,8.828,8.828,8.828h15.334
	l81.77-53.574v53.574h44.138v-53.574l81.769,53.574h15.334c4.875,0,8.828-3.953,8.828-8.828v-7.002l-70.155-45.963H256V150.07
	h-70.155L256,104.107v-7.002C256,92.229,252.047,88.277,247.172,88.277z"/>
<g>
	<polygon style="fill:#FF4B55;" points="256,158.898 141.241,158.898 141.241,88.277 114.759,88.277 114.759,158.898 0,158.898 
		0,185.38 114.759,185.38 114.759,256.001 141.241,256.001 141.241,185.38 256,185.38 	"/>
	<path style="fill:#FF4B55;" d="M97.103,150.07L4.207,89.769C1.735,91.333,0,93.962,0,97.104v0.458l80.889,52.508H97.103z"/>
	<path style="fill:#FF4B55;" d="M166.283,150.07l88.374-57.366c-1.536-2.599-4.246-4.427-7.485-4.427h-1.909l-95.194,61.793H166.283
		z"/>
	<path style="fill:#FF4B55;" d="M89.474,194.208L1.269,251.464c1.521,2.662,4.273,4.537,7.559,4.537h1.665l95.196-61.793H89.474z"/>
	<path style="fill:#FF4B55;" d="M255.86,247.866l-82.666-53.658H156.98l93.874,60.935
		C253.666,253.838,255.595,251.103,255.86,247.866z"/>
</g>
<g>
	<path style="fill:#F5F5F5;" d="M130.671,304.131l6.663,21.997l21.353-8.505c1.822-0.726,3.478,1.352,2.366,2.966l-13.044,18.924
		l19.962,11.391c1.703,0.972,1.112,3.562-0.844,3.699l-22.929,1.601l3.541,22.71c0.302,1.938-2.092,3.091-3.418,1.646
		l-15.548-16.928l-15.548,16.928c-1.326,1.444-3.72,0.291-3.418-1.646l3.541-22.71l-22.929-1.601
		c-1.956-0.137-2.547-2.727-0.844-3.699l19.962-11.391l-13.044-18.924c-1.112-1.614,0.544-3.692,2.366-2.966l21.353,8.505
		l6.663-21.997C127.446,302.254,130.103,302.254,130.671,304.131z"/>
	<path style="fill:#F5F5F5;" d="M393.279,147.73l3.255,10.745l10.43-4.154c0.889-0.354,1.699,0.66,1.155,1.449l-6.371,9.245
		l9.751,5.565c0.832,0.474,0.543,1.74-0.413,1.806l-11.2,0.782l1.729,11.093c0.148,0.947-1.022,1.51-1.67,0.804l-7.595-8.269
		l-7.595,8.269c-0.648,0.705-1.817,0.142-1.67-0.804l1.729-11.093l-11.2-0.782c-0.956-0.066-1.245-1.332-0.413-1.806l9.751-5.565
		l-6.371-9.245c-0.544-0.789,0.266-1.803,1.155-1.449l10.43,4.154l3.255-10.745C391.703,146.813,393.002,146.813,393.279,147.73z"/>
	<path style="fill:#F5F5F5;" d="M320.702,230.206l3.255,10.745l10.43-4.154c0.889-0.354,1.699,0.66,1.155,1.449l-6.371,9.245
		l9.751,5.565c0.832,0.474,0.543,1.74-0.413,1.806l-11.2,0.782l1.729,11.093c0.148,0.947-1.022,1.51-1.67,0.804l-7.595-8.269
		l-7.595,8.269c-0.648,0.705-1.817,0.142-1.67-0.804l1.729-11.093l-11.2-0.782c-0.956-0.066-1.245-1.332-0.413-1.806l9.751-5.565
		l-6.371-9.245c-0.544-0.789,0.266-1.803,1.155-1.449l10.43,4.154l3.255-10.745C319.126,229.289,320.424,229.289,320.702,230.206z"
		/>
	<path style="fill:#F5F5F5;" d="M461.943,194.895l3.255,10.745l10.43-4.154c0.889-0.354,1.699,0.66,1.155,1.449l-6.371,9.245
		l9.751,5.565c0.832,0.474,0.543,1.74-0.413,1.806l-11.2,0.782l1.729,11.093c0.148,0.947-1.022,1.51-1.669,0.804l-7.595-8.269
		l-7.595,8.269c-0.648,0.705-1.817,0.142-1.67-0.804l1.729-11.093l-11.2-0.782c-0.956-0.066-1.245-1.332-0.413-1.806l9.751-5.565
		l-6.371-9.245c-0.544-0.789,0.266-1.803,1.155-1.449l10.43,4.154l3.255-10.745C460.367,193.978,461.665,193.978,461.943,194.895z"
		/>
	<path style="fill:#F5F5F5;" d="M393.279,336.137l3.255,10.745l10.43-4.155c0.889-0.354,1.699,0.66,1.155,1.449l-6.371,9.245
		l9.751,5.565c0.832,0.474,0.543,1.74-0.413,1.806l-11.2,0.782l1.729,11.093c0.148,0.947-1.022,1.51-1.67,0.804l-7.595-8.269
		l-7.595,8.269c-0.648,0.705-1.817,0.142-1.67-0.804l1.729-11.093l-11.2-0.782c-0.956-0.066-1.245-1.332-0.413-1.806l9.751-5.565
		l-6.371-9.245c-0.544-0.789,0.266-1.803,1.155-1.449l10.43,4.155l3.255-10.745C391.703,335.22,393.002,335.22,393.279,336.137z"/>
	<path style="fill:#F5F5F5;" d="M418.461,249.514l-2.613,7.836l-8.259,0.064c-1.069,0.009-1.513,1.373-0.652,2.008l6.644,4.907
		l-2.492,7.875c-0.322,1.02,0.839,1.863,1.708,1.241l6.72-4.803l6.72,4.803c0.87,0.622,2.03-0.222,1.708-1.241l-2.492-7.875
		l6.644-4.907c0.861-0.636,0.417-1.999-0.652-2.008l-8.259-0.064l-2.613-7.836C420.234,248.499,418.799,248.499,418.461,249.514z"/>
</g>
</svg>
<svg id="france-svg" viewBox="0 0 512 512" style="enable-background:new 0 0 512 512;" xml:space="preserve">
<path style="fill:#41479B;" d="M170.667,423.721H8.828c-4.875,0-8.828-3.953-8.828-8.828V97.1c0-4.875,3.953-8.828,8.828-8.828
	h161.839V423.721z"/>
<rect x="170.67" y="88.277" style="fill:#F5F5F5;" width="170.67" height="335.45"/>
<path style="fill:#FF4B55;" d="M503.172,423.721H341.333V88.273h161.839c4.875,0,8.828,3.953,8.828,8.828v317.793
	C512,419.77,508.047,423.721,503.172,423.721z"/>
</svg>
<svg id="germany-svg" viewBox="0 0 512.001 512.001" style="enable-background:new 0 0 512.001 512.001;" xml:space="preserve">
<path style="fill:#464655;" d="M512,200.093H0V97.104c0-4.875,3.953-8.828,8.828-8.828h494.345c4.875,0,8.828,3.953,8.828,8.828
	L512,200.093L512,200.093z"/>
<path style="fill:#FFE15A;" d="M503.172,423.725H8.828c-4.875,0-8.828-3.953-8.828-8.828V311.909h512v102.988
	C512,419.773,508.047,423.725,503.172,423.725z"/>
<rect y="200.091" style="fill:#FF4B55;" width="512" height="111.81"/>
</svg>
<svg id="japan-svg" viewBox="0 0 512.001 512.001" style="enable-background:new 0 0 512.001 512.001;" xml:space="preserve">
<path style="fill:#F5F5F5;" d="M503.172,423.725H8.828c-4.875,0-8.828-3.953-8.828-8.828V97.104c0-4.875,3.953-8.828,8.828-8.828
	h494.345c4.875,0,8.828,3.953,8.828,8.828v317.793C512,419.773,508.047,423.725,503.172,423.725z"/>
<circle style="fill:#FF4B55;" cx="256" cy="256.001" r="97.1"/>
</svg>
<svg id="netherlands-svg" viewBox="0 0 512.001 512.001" style="enable-background:new 0 0 512.001 512.001;" xml:space="preserve">
<path style="fill:#FF4B55;" d="M512,200.093H0V97.104c0-4.875,3.953-8.828,8.828-8.828h494.345c4.875,0,8.828,3.953,8.828,8.828
	L512,200.093L512,200.093z"/>
<path style="fill:#41479B;" d="M503.172,423.725H8.828c-4.875,0-8.828-3.953-8.828-8.828V311.909h512v102.988
	C512,419.773,508.047,423.725,503.172,423.725z"/>
<rect y="200.091" style="fill:#F5F5F5;" width="512" height="111.81"/>
</svg>
<svg id="russia-svg" viewBox="0 0 512.001 512.001" style="enable-background:new 0 0 512.001 512.001;" xml:space="preserve">
<path style="fill:#F5F5F5;" d="M512,200.093H0V97.104c0-4.875,3.953-8.828,8.828-8.828h494.345c4.875,0,8.828,3.953,8.828,8.828
	L512,200.093L512,200.093z"/>
<path style="fill:#FF4B55;" d="M503.172,423.725H8.828c-4.875,0-8.828-3.953-8.828-8.828V311.909h512v102.988
	C512,419.773,508.047,423.725,503.172,423.725z"/>
<rect y="200.091" style="fill:#41479B;" width="512" height="111.81"/>
</svg>
<svg id="ukraine-svg" viewBox="0 0 512.001 512.001" style="enable-background:new 0 0 512.001 512.001;" xml:space="preserve">
<path style="fill:#FFE15A;" d="M0,256h512v158.897c0,4.875-3.953,8.828-8.828,8.828H8.828c-4.875,0-8.828-3.953-8.828-8.828V256z"/>
<path style="fill:#4173CD;" d="M512,256H0V97.103c0-4.875,3.953-8.828,8.828-8.828h494.345c4.875,0,8.828,3.953,8.828,8.828L512,256
	L512,256z"/>
</svg>
<svg id="usa-svg" viewBox="0 0 512.001 512.001" style="enable-background:new 0 0 512.001 512.001;" xml:space="preserve">
<path style="fill:#F5F5F5;" d="M503.172,423.725H8.828c-4.875,0-8.828-3.953-8.828-8.828V97.104c0-4.875,3.953-8.828,8.828-8.828
	h494.345c4.875,0,8.828,3.953,8.828,8.828v317.793C512,419.773,508.047,423.725,503.172,423.725z"/>
<g>
	<path style="fill:#FF4B55;" d="M512,114.081H0V97.104c0-4.875,3.953-8.828,8.828-8.828h494.345c4.875,0,8.828,3.953,8.828,8.828
		L512,114.081L512,114.081z"/>
	<rect y="191.491" style="fill:#FF4B55;" width="512" height="25.804"/>
	<rect y="139.881" style="fill:#FF4B55;" width="512" height="25.804"/>
	<path style="fill:#FF4B55;" d="M512,268.903H8.828c-4.875,0-8.828-3.953-8.828-8.828v-16.977h512V268.903z"/>
	<rect y="346.321" style="fill:#FF4B55;" width="512" height="25.804"/>
	<path style="fill:#FF4B55;" d="M503.172,423.725H8.828c-4.875,0-8.828-3.953-8.828-8.828v-16.976h512v16.977
		C512,419.773,508.047,423.725,503.172,423.725z"/>
	<rect y="294.711" style="fill:#FF4B55;" width="512" height="25.804"/>
</g>
<path style="fill:#41479B;" d="M229.517,88.277H8.828C3.953,88.277,0,92.229,0,97.104v162.97c0,4.875,3.953,8.828,8.828,8.828
	h220.69c4.875,0,8.828-3.953,8.828-8.828V97.104C238.345,92.229,234.392,88.277,229.517,88.277z"/>
<g>
	<path style="fill:#F5F5F5;" d="M24.789,108.538l1.954,5.86l6.177,0.047c0.8,0.007,1.131,1.027,0.488,1.502l-4.969,3.67l1.864,5.889
		c0.242,0.762-0.627,1.394-1.278,0.928L24,122.843l-5.025,3.592c-0.651,0.465-1.518-0.166-1.278-0.928l1.864-5.889l-4.969-3.67
		c-0.643-0.476-0.312-1.495,0.488-1.502l6.177-0.047l1.954-5.86C23.463,107.779,24.535,107.779,24.789,108.538z"/>
	<path style="fill:#F5F5F5;" d="M24.789,139.192l1.954,5.86l6.177,0.047c0.8,0.007,1.131,1.027,0.488,1.502l-4.969,3.67l1.864,5.889
		c0.242,0.762-0.627,1.394-1.278,0.928L24,153.497l-5.025,3.592c-0.651,0.465-1.518-0.166-1.278-0.928l1.864-5.889l-4.969-3.67
		c-0.643-0.476-0.312-1.495,0.488-1.502l6.177-0.047l1.954-5.86C23.463,138.434,24.535,138.434,24.789,139.192z"/>
	<path style="fill:#F5F5F5;" d="M24.789,169.846l1.954,5.86l6.177,0.047c0.8,0.007,1.131,1.027,0.488,1.502l-4.969,3.67l1.864,5.889
		c0.242,0.762-0.627,1.394-1.278,0.928L24,184.151l-5.025,3.592c-0.651,0.465-1.518-0.166-1.278-0.928l1.864-5.889l-4.969-3.67
		c-0.643-0.476-0.312-1.495,0.488-1.502l6.177-0.047l1.954-5.86C23.463,169.088,24.535,169.088,24.789,169.846z"/>
	<path style="fill:#F5F5F5;" d="M24.789,200.501l1.954,5.86l6.177,0.047c0.8,0.007,1.131,1.027,0.488,1.502l-4.969,3.67l1.864,5.889
		c0.242,0.762-0.627,1.394-1.278,0.928L24,214.806l-5.025,3.592c-0.651,0.465-1.518-0.166-1.278-0.928l1.864-5.889l-4.969-3.67
		c-0.643-0.476-0.312-1.495,0.488-1.502l6.177-0.047l1.954-5.86C23.463,199.742,24.535,199.742,24.789,200.501z"/>
	<path style="fill:#F5F5F5;" d="M24.789,231.155l1.954,5.86l6.177,0.047c0.8,0.007,1.131,1.027,0.488,1.502l-4.969,3.67l1.864,5.889
		c0.242,0.762-0.627,1.394-1.278,0.928L24,245.46l-5.025,3.592c-0.651,0.465-1.518-0.166-1.278-0.928l1.864-5.889l-4.969-3.67
		c-0.643-0.476-0.312-1.495,0.488-1.502l6.177-0.047l1.954-5.86C23.463,230.395,24.535,230.395,24.789,231.155z"/>
	<path style="fill:#F5F5F5;" d="M48.582,123.567l1.954,5.86l6.177,0.047c0.8,0.007,1.131,1.027,0.488,1.502l-4.969,3.67l1.864,5.889
		c0.242,0.762-0.627,1.394-1.278,0.928l-5.025-3.592l-5.025,3.592c-0.651,0.465-1.518-0.166-1.278-0.928l1.864-5.889l-4.969-3.67
		c-0.643-0.476-0.312-1.495,0.488-1.502l6.177-0.047l1.954-5.86C47.255,122.809,48.329,122.809,48.582,123.567z"/>
	<path style="fill:#F5F5F5;" d="M48.582,154.222l1.954,5.86l6.177,0.047c0.8,0.007,1.131,1.027,0.488,1.502l-4.969,3.67l1.864,5.889
		c0.242,0.762-0.627,1.394-1.278,0.928l-5.025-3.592l-5.025,3.592c-0.651,0.465-1.518-0.165-1.278-0.928l1.864-5.889l-4.969-3.67
		c-0.643-0.476-0.312-1.495,0.488-1.502l6.177-0.047l1.954-5.86C47.255,153.463,48.329,153.463,48.582,154.222z"/>
	<path style="fill:#F5F5F5;" d="M48.582,184.876l1.954,5.86l6.177,0.047c0.8,0.007,1.131,1.027,0.488,1.502l-4.969,3.67l1.864,5.889
		c0.242,0.762-0.627,1.394-1.278,0.928l-5.025-3.592l-5.025,3.592c-0.651,0.465-1.518-0.166-1.278-0.928l1.864-5.889l-4.969-3.67
		c-0.643-0.476-0.312-1.495,0.488-1.502l6.177-0.047l1.954-5.86C47.255,184.117,48.329,184.117,48.582,184.876z"/>
	<path style="fill:#F5F5F5;" d="M48.582,215.53l1.954,5.86l6.177,0.047c0.8,0.007,1.131,1.027,0.488,1.502l-4.969,3.67l1.864,5.889
		c0.242,0.762-0.627,1.394-1.278,0.928l-5.025-3.592l-5.025,3.592c-0.651,0.465-1.518-0.166-1.278-0.928l1.864-5.889l-4.969-3.67
		c-0.643-0.476-0.312-1.495,0.488-1.502l6.177-0.047l1.954-5.86C47.255,214.772,48.329,214.772,48.582,215.53z"/>
	<path style="fill:#F5F5F5;" d="M72.375,108.538l1.954,5.86l6.177,0.047c0.8,0.007,1.131,1.027,0.488,1.502l-4.969,3.67l1.864,5.889
		c0.242,0.762-0.627,1.394-1.278,0.928l-5.025-3.592l-5.025,3.592c-0.651,0.465-1.518-0.166-1.278-0.928l1.864-5.889l-4.969-3.67
		c-0.643-0.476-0.312-1.495,0.488-1.502l6.177-0.047l1.954-5.86C71.049,107.779,72.122,107.779,72.375,108.538z"/>
	<path style="fill:#F5F5F5;" d="M72.375,139.192l1.954,5.86l6.177,0.047c0.8,0.007,1.131,1.027,0.488,1.502l-4.969,3.67l1.864,5.889
		c0.242,0.762-0.627,1.394-1.278,0.928l-5.025-3.592l-5.025,3.592c-0.651,0.465-1.518-0.166-1.278-0.928l1.864-5.889l-4.969-3.67
		c-0.643-0.476-0.312-1.495,0.488-1.502l6.177-0.047l1.954-5.86C71.049,138.434,72.122,138.434,72.375,139.192z"/>
	<path style="fill:#F5F5F5;" d="M72.375,169.846l1.954,5.86l6.177,0.047c0.8,0.007,1.131,1.027,0.488,1.502l-4.969,3.67l1.864,5.889
		c0.242,0.762-0.627,1.394-1.278,0.928l-5.025-3.592l-5.025,3.592c-0.651,0.465-1.518-0.166-1.278-0.928l1.864-5.889l-4.969-3.67
		c-0.643-0.476-0.312-1.495,0.488-1.502l6.177-0.047l1.954-5.86C71.049,169.088,72.122,169.088,72.375,169.846z"/>
	<path style="fill:#F5F5F5;" d="M72.375,200.501l1.954,5.86l6.177,0.047c0.8,0.007,1.131,1.027,0.488,1.502l-4.969,3.67l1.864,5.889
		c0.242,0.762-0.627,1.394-1.278,0.928l-5.025-3.592l-5.025,3.592c-0.651,0.465-1.518-0.166-1.278-0.928l1.864-5.889l-4.969-3.67
		c-0.643-0.476-0.312-1.495,0.488-1.502l6.177-0.047l1.954-5.86C71.049,199.742,72.122,199.742,72.375,200.501z"/>
	<path style="fill:#F5F5F5;" d="M72.375,231.155l1.954,5.86l6.177,0.047c0.8,0.007,1.131,1.027,0.488,1.502l-4.969,3.67l1.864,5.889
		c0.242,0.762-0.627,1.394-1.278,0.928l-5.025-3.592l-5.025,3.592c-0.651,0.465-1.518-0.166-1.278-0.928l1.864-5.889l-4.969-3.67
		c-0.643-0.476-0.312-1.495,0.488-1.502l6.177-0.047l1.954-5.86C71.049,230.395,72.122,230.395,72.375,231.155z"/>
	<path style="fill:#F5F5F5;" d="M96.169,123.567l1.954,5.86l6.177,0.047c0.8,0.007,1.131,1.027,0.488,1.502l-4.969,3.67l1.864,5.889
		c0.242,0.762-0.627,1.394-1.278,0.928l-5.025-3.592l-5.025,3.592c-0.651,0.465-1.518-0.166-1.278-0.928l1.864-5.889l-4.969-3.67
		c-0.643-0.476-0.312-1.495,0.488-1.502l6.177-0.047l1.954-5.86C94.842,122.809,95.916,122.809,96.169,123.567z"/>
	<path style="fill:#F5F5F5;" d="M96.169,154.222l1.954,5.86l6.177,0.047c0.8,0.007,1.131,1.027,0.488,1.502l-4.969,3.67l1.864,5.889
		c0.242,0.762-0.627,1.394-1.278,0.928l-5.025-3.592l-5.025,3.592c-0.651,0.465-1.518-0.165-1.278-0.928l1.864-5.889l-4.969-3.67
		c-0.643-0.476-0.312-1.495,0.488-1.502l6.177-0.047l1.954-5.86C94.842,153.463,95.916,153.463,96.169,154.222z"/>
	<path style="fill:#F5F5F5;" d="M96.169,184.876l1.954,5.86l6.177,0.047c0.8,0.007,1.131,1.027,0.488,1.502l-4.969,3.67l1.864,5.889
		c0.242,0.762-0.627,1.394-1.278,0.928l-5.025-3.592l-5.025,3.592c-0.651,0.465-1.518-0.166-1.278-0.928l1.864-5.889l-4.969-3.67
		c-0.643-0.476-0.312-1.495,0.488-1.502l6.177-0.047l1.954-5.86C94.842,184.117,95.916,184.117,96.169,184.876z"/>
	<path style="fill:#F5F5F5;" d="M96.169,215.53l1.954,5.86l6.177,0.047c0.8,0.007,1.131,1.027,0.488,1.502l-4.969,3.67l1.864,5.889
		c0.242,0.762-0.627,1.394-1.278,0.928l-5.025-3.592l-5.025,3.592c-0.651,0.465-1.518-0.166-1.278-0.928l1.864-5.889l-4.969-3.67
		c-0.643-0.476-0.312-1.495,0.488-1.502l6.177-0.047l1.954-5.86C94.842,214.772,95.916,214.772,96.169,215.53z"/>
	<path style="fill:#F5F5F5;" d="M119.962,108.538l1.954,5.86l6.177,0.047c0.8,0.007,1.131,1.027,0.488,1.502l-4.969,3.67
		l1.864,5.889c0.242,0.762-0.627,1.394-1.278,0.928l-5.026-3.592l-5.025,3.592c-0.651,0.465-1.518-0.166-1.278-0.928l1.864-5.889
		l-4.969-3.67c-0.643-0.476-0.312-1.495,0.488-1.502l6.177-0.047l1.954-5.86C118.636,107.779,119.709,107.779,119.962,108.538z"/>
	<path style="fill:#F5F5F5;" d="M119.962,139.192l1.954,5.86l6.177,0.047c0.8,0.007,1.131,1.027,0.488,1.502l-4.969,3.67
		l1.864,5.889c0.242,0.762-0.627,1.394-1.278,0.928l-5.026-3.592l-5.025,3.592c-0.651,0.465-1.518-0.166-1.278-0.928l1.864-5.889
		l-4.969-3.67c-0.643-0.476-0.312-1.495,0.488-1.502l6.177-0.047l1.954-5.86C118.636,138.434,119.709,138.434,119.962,139.192z"/>
	<path style="fill:#F5F5F5;" d="M119.962,169.846l1.954,5.86l6.177,0.047c0.8,0.007,1.131,1.027,0.488,1.502l-4.969,3.67
		l1.864,5.889c0.242,0.762-0.627,1.394-1.278,0.928l-5.026-3.592l-5.025,3.592c-0.651,0.465-1.518-0.166-1.278-0.928l1.864-5.889
		l-4.969-3.67c-0.643-0.476-0.312-1.495,0.488-1.502l6.177-0.047l1.954-5.86C118.636,169.088,119.709,169.088,119.962,169.846z"/>
	<path style="fill:#F5F5F5;" d="M119.962,200.501l1.954,5.86l6.177,0.047c0.8,0.007,1.131,1.027,0.488,1.502l-4.969,3.67
		l1.864,5.889c0.242,0.762-0.627,1.394-1.278,0.928l-5.026-3.592l-5.025,3.592c-0.651,0.465-1.518-0.166-1.278-0.928l1.864-5.889
		l-4.969-3.67c-0.643-0.476-0.312-1.495,0.488-1.502l6.177-0.047l1.954-5.86C118.636,199.742,119.709,199.742,119.962,200.501z"/>
	<path style="fill:#F5F5F5;" d="M119.962,231.155l1.954,5.86l6.177,0.047c0.8,0.007,1.131,1.027,0.488,1.502l-4.969,3.67
		l1.864,5.889c0.242,0.762-0.627,1.394-1.278,0.928l-5.026-3.592l-5.025,3.592c-0.651,0.465-1.518-0.166-1.278-0.928l1.864-5.889
		l-4.969-3.67c-0.643-0.476-0.312-1.495,0.488-1.502l6.177-0.047l1.954-5.86C118.636,230.395,119.709,230.395,119.962,231.155z"/>
	<path style="fill:#F5F5F5;" d="M143.755,123.567l1.954,5.86l6.177,0.047c0.8,0.007,1.131,1.027,0.488,1.502l-4.969,3.67
		l1.864,5.889c0.242,0.762-0.627,1.394-1.278,0.928l-5.025-3.592l-5.025,3.592c-0.651,0.465-1.518-0.166-1.278-0.928l1.864-5.889
		l-4.969-3.67c-0.643-0.476-0.312-1.495,0.488-1.502l6.177-0.047l1.954-5.86C142.43,122.809,143.502,122.809,143.755,123.567z"/>
	<path style="fill:#F5F5F5;" d="M143.755,154.222l1.954,5.86l6.177,0.047c0.8,0.007,1.131,1.027,0.488,1.502l-4.969,3.67
		l1.864,5.889c0.242,0.762-0.627,1.394-1.278,0.928l-5.025-3.592l-5.025,3.592c-0.651,0.465-1.518-0.165-1.278-0.928l1.864-5.889
		l-4.969-3.67c-0.643-0.476-0.312-1.495,0.488-1.502l6.177-0.047l1.954-5.86C142.43,153.463,143.502,153.463,143.755,154.222z"/>
	<path style="fill:#F5F5F5;" d="M143.755,184.876l1.954,5.86l6.177,0.047c0.8,0.007,1.131,1.027,0.488,1.502l-4.969,3.67
		l1.864,5.889c0.242,0.762-0.627,1.394-1.278,0.928l-5.025-3.592l-5.025,3.592c-0.651,0.465-1.518-0.166-1.278-0.928l1.864-5.889
		l-4.969-3.67c-0.643-0.476-0.312-1.495,0.488-1.502l6.177-0.047l1.954-5.86C142.43,184.117,143.502,184.117,143.755,184.876z"/>
	<path style="fill:#F5F5F5;" d="M143.755,215.53l1.954,5.86l6.177,0.047c0.8,0.007,1.131,1.027,0.488,1.502l-4.969,3.67l1.864,5.889
		c0.242,0.762-0.627,1.394-1.278,0.928l-5.025-3.592l-5.025,3.592c-0.651,0.465-1.518-0.166-1.278-0.928l1.864-5.889l-4.969-3.67
		c-0.643-0.476-0.312-1.495,0.488-1.502l6.177-0.047l1.954-5.86C142.43,214.772,143.502,214.772,143.755,215.53z"/>
	<path style="fill:#F5F5F5;" d="M167.549,108.538l1.954,5.86l6.177,0.047c0.8,0.007,1.131,1.027,0.488,1.502l-4.969,3.67
		l1.864,5.889c0.242,0.762-0.627,1.394-1.278,0.928l-5.025-3.592l-5.025,3.592c-0.651,0.465-1.518-0.166-1.278-0.928l1.864-5.889
		l-4.969-3.67c-0.643-0.476-0.312-1.495,0.488-1.502l6.177-0.047l1.954-5.86C166.222,107.779,167.296,107.779,167.549,108.538z"/>
	<path style="fill:#F5F5F5;" d="M167.549,139.192l1.954,5.86l6.177,0.047c0.8,0.007,1.131,1.027,0.488,1.502l-4.969,3.67
		l1.864,5.889c0.242,0.762-0.627,1.394-1.278,0.928l-5.025-3.592l-5.025,3.592c-0.651,0.465-1.518-0.166-1.278-0.928l1.864-5.889
		l-4.969-3.67c-0.643-0.476-0.312-1.495,0.488-1.502l6.177-0.047l1.954-5.86C166.222,138.434,167.296,138.434,167.549,139.192z"/>
	<path style="fill:#F5F5F5;" d="M167.549,169.846l1.954,5.86l6.177,0.047c0.8,0.007,1.131,1.027,0.488,1.502l-4.969,3.67
		l1.864,5.889c0.242,0.762-0.627,1.394-1.278,0.928l-5.025-3.592l-5.025,3.592c-0.651,0.465-1.518-0.166-1.278-0.928l1.864-5.889
		l-4.969-3.67c-0.643-0.476-0.312-1.495,0.488-1.502l6.177-0.047l1.954-5.86C166.222,169.088,167.296,169.088,167.549,169.846z"/>
	<path style="fill:#F5F5F5;" d="M167.549,200.501l1.954,5.86l6.177,0.047c0.8,0.007,1.131,1.027,0.488,1.502l-4.969,3.67
		l1.864,5.889c0.242,0.762-0.627,1.394-1.278,0.928l-5.025-3.592l-5.025,3.592c-0.651,0.465-1.518-0.166-1.278-0.928l1.864-5.889
		l-4.969-3.67c-0.643-0.476-0.312-1.495,0.488-1.502l6.177-0.047l1.954-5.86C166.222,199.742,167.296,199.742,167.549,200.501z"/>
	<path style="fill:#F5F5F5;" d="M167.549,231.155l1.954,5.86l6.177,0.047c0.8,0.007,1.131,1.027,0.488,1.502l-4.969,3.67
		l1.864,5.889c0.242,0.762-0.627,1.394-1.278,0.928l-5.025-3.592l-5.025,3.592c-0.651,0.465-1.518-0.166-1.278-0.928l1.864-5.889
		l-4.969-3.67c-0.643-0.476-0.312-1.495,0.488-1.502l6.177-0.047l1.954-5.86C166.222,230.395,167.296,230.395,167.549,231.155z"/>
	<path style="fill:#F5F5F5;" d="M191.342,123.567l1.954,5.86l6.177,0.047c0.8,0.007,1.131,1.027,0.488,1.502l-4.969,3.67
		l1.864,5.889c0.242,0.762-0.627,1.394-1.278,0.928l-5.025-3.592l-5.025,3.592c-0.651,0.465-1.518-0.166-1.278-0.928l1.864-5.889
		l-4.969-3.67c-0.643-0.476-0.312-1.495,0.488-1.502l6.177-0.047l1.954-5.86C190.016,122.809,191.09,122.809,191.342,123.567z"/>
	<path style="fill:#F5F5F5;" d="M191.342,154.222l1.954,5.86l6.177,0.047c0.8,0.007,1.131,1.027,0.488,1.502l-4.969,3.67
		l1.864,5.889c0.242,0.762-0.627,1.394-1.278,0.928l-5.025-3.592l-5.025,3.592c-0.651,0.465-1.518-0.165-1.278-0.928l1.864-5.889
		l-4.969-3.67c-0.643-0.476-0.312-1.495,0.488-1.502l6.177-0.047l1.954-5.86C190.016,153.463,191.09,153.463,191.342,154.222z"/>
	<path style="fill:#F5F5F5;" d="M191.342,184.876l1.954,5.86l6.177,0.047c0.8,0.007,1.131,1.027,0.488,1.502l-4.969,3.67
		l1.864,5.889c0.242,0.762-0.627,1.394-1.278,0.928l-5.025-3.592l-5.025,3.592c-0.651,0.465-1.518-0.166-1.278-0.928l1.864-5.889
		l-4.969-3.67c-0.643-0.476-0.312-1.495,0.488-1.502l6.177-0.047l1.954-5.86C190.016,184.117,191.09,184.117,191.342,184.876z"/>
	<path style="fill:#F5F5F5;" d="M191.342,215.53l1.954,5.86l6.177,0.047c0.8,0.007,1.131,1.027,0.488,1.502l-4.969,3.67l1.864,5.889
		c0.242,0.762-0.627,1.394-1.278,0.928l-5.025-3.592l-5.025,3.592c-0.651,0.465-1.518-0.166-1.278-0.928l1.864-5.889l-4.969-3.67
		c-0.643-0.476-0.312-1.495,0.488-1.502l6.177-0.047l1.954-5.86C190.016,214.772,191.09,214.772,191.342,215.53z"/>
	<path style="fill:#F5F5F5;" d="M215.136,108.538l1.954,5.86l6.177,0.047c0.8,0.007,1.131,1.027,0.488,1.502l-4.969,3.67
		l1.864,5.889c0.242,0.762-0.627,1.394-1.278,0.928l-5.025-3.592l-5.025,3.592c-0.651,0.465-1.518-0.166-1.278-0.928l1.864-5.889
		l-4.969-3.67c-0.643-0.476-0.312-1.495,0.488-1.502l6.177-0.047l1.954-5.86C213.81,107.779,214.882,107.779,215.136,108.538z"/>
	<path style="fill:#F5F5F5;" d="M215.136,139.192l1.954,5.86l6.177,0.047c0.8,0.007,1.131,1.027,0.488,1.502l-4.969,3.67
		l1.864,5.889c0.242,0.762-0.627,1.394-1.278,0.928l-5.025-3.592l-5.025,3.592c-0.651,0.465-1.518-0.166-1.278-0.928l1.864-5.889
		l-4.969-3.67c-0.643-0.476-0.312-1.495,0.488-1.502l6.177-0.047l1.954-5.86C213.81,138.434,214.882,138.434,215.136,139.192z"/>
	<path style="fill:#F5F5F5;" d="M215.136,169.846l1.954,5.86l6.177,0.047c0.8,0.007,1.131,1.027,0.488,1.502l-4.969,3.67
		l1.864,5.889c0.242,0.762-0.627,1.394-1.278,0.928l-5.025-3.592l-5.025,3.592c-0.651,0.465-1.518-0.166-1.278-0.928l1.864-5.889
		l-4.969-3.67c-0.643-0.476-0.312-1.495,0.488-1.502l6.177-0.047l1.954-5.86C213.81,169.088,214.882,169.088,215.136,169.846z"/>
	<path style="fill:#F5F5F5;" d="M215.136,200.501l1.954,5.86l6.177,0.047c0.8,0.007,1.131,1.027,0.488,1.502l-4.969,3.67
		l1.864,5.889c0.242,0.762-0.627,1.394-1.278,0.928l-5.025-3.592l-5.025,3.592c-0.651,0.465-1.518-0.166-1.278-0.928l1.864-5.889
		l-4.969-3.67c-0.643-0.476-0.312-1.495,0.488-1.502l6.177-0.047l1.954-5.86C213.81,199.742,214.882,199.742,215.136,200.501z"/>
	<path style="fill:#F5F5F5;" d="M215.136,231.155l1.954,5.86l6.177,0.047c0.8,0.007,1.131,1.027,0.488,1.502l-4.969,3.67
		l1.864,5.889c0.242,0.762-0.627,1.394-1.278,0.928l-5.025-3.592l-5.025,3.592c-0.651,0.465-1.518-0.166-1.278-0.928l1.864-5.889
		l-4.969-3.67c-0.643-0.476-0.312-1.495,0.488-1.502l6.177-0.047l1.954-5.86C213.81,230.395,214.882,230.395,215.136,231.155z"/>
</g>
</svg>
